<svg xmlns="http://www.w3.org/2000/svg" xmlns:xlink="http://www.w3.org/1999/xlink" width="500" zoomAndPan="magnify" viewBox="0 0 375 374.999991" height="500" preserveAspectRatio="xMidYMid meet" version="1.0"><defs><g/><clipPath id="082d74c338"><path d="M 106.503906 99.261719 L 277.113281 99.261719 L 277.113281 209.992188 L 106.503906 209.992188 Z M 106.503906 99.261719 " clip-rule="nonzero"/></clipPath></defs><g clip-path="url(#082d74c338)"><path fill="#7371fc" d="M 119.746094 177.71875 C 120.492188 178.253906 121.261719 178.757812 122.054688 179.226562 C 123.25 179.773438 124.574219 180.078125 125.972656 180.078125 C 127.328125 180.078125 128.613281 179.792969 129.777344 179.277344 L 131.285156 178.433594 L 182.292969 149.953125 L 153.675781 137.617188 C 158 132.21875 164.972656 133.378906 172.527344 135.113281 L 199.371094 141.273438 L 219.253906 131.171875 C 222.925781 129.308594 230.417969 129.28125 232.285156 132.957031 C 234.144531 136.628906 229.703125 142.667969 226.03125 144.535156 L 206.152344 154.632812 L 195.277344 179.953125 C 192.21875 187.082031 189.039062 193.394531 182.125 193.699219 L 189.070312 163.308594 L 159.742188 176.878906 L 158.15625 177.613281 C 156.257812 178.8125 154.996094 180.933594 154.996094 183.347656 C 154.996094 185.90625 156.414062 188.132812 158.507812 189.285156 C 159.835938 189.628906 161.199219 189.894531 162.582031 190.066406 C 163.949219 190.242188 165.34375 190.332031 166.757812 190.332031 C 168.78125 190.332031 170.765625 190.148438 172.6875 189.792969 C 177.640625 201.628906 189.320312 209.945312 202.945312 209.945312 C 219.214844 209.945312 232.710938 198.089844 235.289062 182.542969 C 238.152344 183.363281 241.183594 183.800781 244.316406 183.800781 C 262.425781 183.800781 277.105469 169.113281 277.105469 150.992188 C 277.105469 132.875 262.425781 118.183594 244.316406 118.183594 C 239.167969 118.183594 234.292969 119.375 229.957031 121.496094 C 223.414062 108.34375 209.847656 99.308594 194.167969 99.308594 C 177.546875 99.308594 163.296875 109.464844 157.273438 123.914062 C 152.007812 120.296875 145.632812 118.183594 138.765625 118.183594 C 120.65625 118.183594 105.976562 132.875 105.976562 150.992188 C 105.976562 161.117188 110.5625 170.175781 117.765625 176.191406 C 118.40625 176.722656 119.066406 177.234375 119.746094 177.71875 " fill-opacity="1" fill-rule="evenodd"/></g><g fill="#7371fc" fill-opacity="1"><g transform="translate(33.938019, 263.500102)"><g><path d="M 13.640625 -35.515625 L 13.640625 0 L 2.515625 0 L 2.515625 -35.515625 Z M 13.640625 -35.515625 "/></g></g></g><g fill="#7371fc" fill-opacity="1"><g transform="translate(51.391642, 263.500102)"><g><path d="M 22.328125 -28.5 C 25.566406 -28.5 28.097656 -27.410156 29.921875 -25.234375 C 31.742188 -23.054688 32.65625 -20.113281 32.65625 -16.40625 L 32.65625 0 L 21.578125 0 L 21.578125 -15 C 21.578125 -16.34375 21.21875 -17.40625 20.5 -18.1875 C 19.78125 -18.96875 18.816406 -19.359375 17.609375 -19.359375 C 16.367188 -19.359375 15.394531 -18.96875 14.6875 -18.1875 C 13.988281 -17.40625 13.640625 -16.34375 13.640625 -15 L 13.640625 0 L 2.515625 0 L 2.515625 -28.296875 L 13.640625 -28.296875 L 13.640625 -23.984375 C 14.515625 -25.316406 15.675781 -26.398438 17.125 -27.234375 C 18.582031 -28.078125 20.316406 -28.5 22.328125 -28.5 Z M 22.328125 -28.5 "/></g></g></g><g fill="#7371fc" fill-opacity="1"><g transform="translate(87.652095, 263.500102)"><g><path d="M 18.8125 -30.296875 C 18.207031 -30.367188 17.789062 -30.40625 17.5625 -30.40625 C 16.726562 -30.40625 16.09375 -30.242188 15.65625 -29.921875 C 15.21875 -29.609375 14.914062 -29.066406 14.75 -28.296875 L 18.8125 -28.296875 L 18.8125 -19.015625 L 14.65625 -19.015625 L 14.65625 0 L 3.515625 0 L 3.515625 -19.015625 L 0.5 -19.015625 L 0.5 -28.296875 L 3.515625 -28.296875 C 3.578125 -31.972656 4.738281 -34.820312 7 -36.84375 C 9.257812 -38.875 12.425781 -39.890625 16.5 -39.890625 C 16.96875 -39.890625 17.738281 -39.851562 18.8125 -39.78125 Z M 18.8125 -30.296875 "/></g></g></g><g fill="#7371fc" fill-opacity="1"><g transform="translate(108.265276, 263.500102)"><g><path d="M 8.125 -30.546875 C 6.1875 -30.546875 4.628906 -31.066406 3.453125 -32.109375 C 2.285156 -33.148438 1.703125 -34.453125 1.703125 -36.015625 C 1.703125 -37.628906 2.285156 -38.960938 3.453125 -40.015625 C 4.628906 -41.066406 6.1875 -41.59375 8.125 -41.59375 C 10.03125 -41.59375 11.566406 -41.066406 12.734375 -40.015625 C 13.910156 -38.960938 14.5 -37.628906 14.5 -36.015625 C 14.5 -34.453125 13.910156 -33.148438 12.734375 -32.109375 C 11.566406 -31.066406 10.03125 -30.546875 8.125 -30.546875 Z M 13.640625 -28.296875 L 13.640625 0 L 2.515625 0 L 2.515625 -28.296875 Z M 13.640625 -28.296875 "/></g></g></g><g fill="#7371fc" fill-opacity="1"><g transform="translate(125.718897, 263.500102)"><g><path d="M 22.328125 -28.5 C 25.566406 -28.5 28.097656 -27.410156 29.921875 -25.234375 C 31.742188 -23.054688 32.65625 -20.113281 32.65625 -16.40625 L 32.65625 0 L 21.578125 0 L 21.578125 -15 C 21.578125 -16.34375 21.21875 -17.40625 20.5 -18.1875 C 19.78125 -18.96875 18.816406 -19.359375 17.609375 -19.359375 C 16.367188 -19.359375 15.394531 -18.96875 14.6875 -18.1875 C 13.988281 -17.40625 13.640625 -16.34375 13.640625 -15 L 13.640625 0 L 2.515625 0 L 2.515625 -28.296875 L 13.640625 -28.296875 L 13.640625 -23.984375 C 14.515625 -25.316406 15.675781 -26.398438 17.125 -27.234375 C 18.582031 -28.078125 20.316406 -28.5 22.328125 -28.5 Z M 22.328125 -28.5 "/></g></g></g><g fill="#7371fc" fill-opacity="1"><g transform="translate(161.979344, 263.500102)"><g><path d="M 8.125 -30.546875 C 6.1875 -30.546875 4.628906 -31.066406 3.453125 -32.109375 C 2.285156 -33.148438 1.703125 -34.453125 1.703125 -36.015625 C 1.703125 -37.628906 2.285156 -38.960938 3.453125 -40.015625 C 4.628906 -41.066406 6.1875 -41.59375 8.125 -41.59375 C 10.03125 -41.59375 11.566406 -41.066406 12.734375 -40.015625 C 13.910156 -38.960938 14.5 -37.628906 14.5 -36.015625 C 14.5 -34.453125 13.910156 -33.148438 12.734375 -32.109375 C 11.566406 -31.066406 10.03125 -30.546875 8.125 -30.546875 Z M 13.640625 -28.296875 L 13.640625 0 L 2.515625 0 L 2.515625 -28.296875 Z M 13.640625 -28.296875 "/></g></g></g><g fill="#7371fc" fill-opacity="1"><g transform="translate(179.432972, 263.500102)"><g><path d="M 20.125 -9.484375 L 20.125 0 L 15.90625 0 C 8.144531 0 4.265625 -3.863281 4.265625 -11.59375 L 4.265625 -19.015625 L 0.75 -19.015625 L 0.75 -28.296875 L 4.265625 -28.296875 L 4.265625 -35.125 L 15.40625 -35.125 L 15.40625 -28.296875 L 20.015625 -28.296875 L 20.015625 -19.015625 L 15.40625 -19.015625 L 15.40625 -11.390625 C 15.40625 -10.722656 15.5625 -10.238281 15.875 -9.9375 C 16.195312 -9.632812 16.722656 -9.484375 17.453125 -9.484375 Z M 20.125 -9.484375 "/></g></g></g><g fill="#7371fc" fill-opacity="1"><g transform="translate(202.603871, 263.500102)"><g><path d="M 29.90625 -14.40625 C 29.90625 -13.632812 29.851562 -12.894531 29.75 -12.1875 L 11.84375 -12.1875 C 12.007812 -9.75 13.03125 -8.53125 14.90625 -8.53125 C 16.101562 -8.53125 16.972656 -9.082031 17.515625 -10.1875 L 29.296875 -10.1875 C 28.898438 -8.175781 28.054688 -6.375 26.765625 -4.78125 C 25.472656 -3.195312 23.847656 -1.945312 21.890625 -1.03125 C 19.941406 -0.113281 17.796875 0.34375 15.453125 0.34375 C 12.640625 0.34375 10.140625 -0.238281 7.953125 -1.40625 C 5.765625 -2.570312 4.054688 -4.25 2.828125 -6.4375 C 1.609375 -8.632812 1 -11.207031 1 -14.15625 C 1 -17.09375 1.609375 -19.65625 2.828125 -21.84375 C 4.054688 -24.039062 5.765625 -25.722656 7.953125 -26.890625 C 10.140625 -28.054688 12.640625 -28.640625 15.453125 -28.640625 C 18.265625 -28.640625 20.765625 -28.0625 22.953125 -26.90625 C 25.140625 -25.757812 26.84375 -24.113281 28.0625 -21.96875 C 29.289062 -19.832031 29.90625 -17.3125 29.90625 -14.40625 Z M 18.609375 -17.0625 C 18.609375 -18 18.304688 -18.707031 17.703125 -19.1875 C 17.109375 -19.675781 16.359375 -19.921875 15.453125 -19.921875 C 13.484375 -19.921875 12.328125 -18.96875 11.984375 -17.0625 Z M 18.609375 -17.0625 "/></g></g></g><g fill="#7371fc" fill-opacity="1"><g transform="translate(234.802061, 263.500102)"><g><path d="M 13.640625 -35.515625 L 13.640625 0 L 2.515625 0 L 2.515625 -35.515625 Z M 13.640625 -35.515625 "/></g></g></g><g fill="#7371fc" fill-opacity="1"><g transform="translate(252.255677, 263.500102)"><g><path d="M 22.328125 -28.5 C 25.566406 -28.5 28.097656 -27.410156 29.921875 -25.234375 C 31.742188 -23.054688 32.65625 -20.113281 32.65625 -16.40625 L 32.65625 0 L 21.578125 0 L 21.578125 -15 C 21.578125 -16.34375 21.21875 -17.40625 20.5 -18.1875 C 19.78125 -18.96875 18.816406 -19.359375 17.609375 -19.359375 C 16.367188 -19.359375 15.394531 -18.96875 14.6875 -18.1875 C 13.988281 -17.40625 13.640625 -16.34375 13.640625 -15 L 13.640625 0 L 2.515625 0 L 2.515625 -28.296875 L 13.640625 -28.296875 L 13.640625 -23.984375 C 14.515625 -25.316406 15.675781 -26.398438 17.125 -27.234375 C 18.582031 -28.078125 20.316406 -28.5 22.328125 -28.5 Z M 22.328125 -28.5 "/></g></g></g><g fill="#7371fc" fill-opacity="1"><g transform="translate(288.516119, 263.500102)"><g><path d="M 18.8125 -30.296875 C 18.207031 -30.367188 17.789062 -30.40625 17.5625 -30.40625 C 16.726562 -30.40625 16.09375 -30.242188 15.65625 -29.921875 C 15.21875 -29.609375 14.914062 -29.066406 14.75 -28.296875 L 18.8125 -28.296875 L 18.8125 -19.015625 L 14.65625 -19.015625 L 14.65625 0 L 3.515625 0 L 3.515625 -19.015625 L 0.5 -19.015625 L 0.5 -28.296875 L 3.515625 -28.296875 C 3.578125 -31.972656 4.738281 -34.820312 7 -36.84375 C 9.257812 -38.875 12.425781 -39.890625 16.5 -39.890625 C 16.96875 -39.890625 17.738281 -39.851562 18.8125 -39.78125 Z M 18.8125 -30.296875 "/></g></g></g><g fill="#7371fc" fill-opacity="1"><g transform="translate(309.129294, 263.500102)"><g><path d="M 15.953125 0.34375 C 13.109375 0.34375 10.546875 -0.238281 8.265625 -1.40625 C 5.992188 -2.570312 4.210938 -4.25 2.921875 -6.4375 C 1.640625 -8.632812 1 -11.207031 1 -14.15625 C 1 -17.09375 1.640625 -19.65625 2.921875 -21.84375 C 4.210938 -24.039062 5.992188 -25.722656 8.265625 -26.890625 C 10.546875 -28.054688 13.109375 -28.640625 15.953125 -28.640625 C 18.796875 -28.640625 21.351562 -28.054688 23.625 -26.890625 C 25.90625 -25.722656 27.6875 -24.039062 28.96875 -21.84375 C 30.257812 -19.65625 30.90625 -17.09375 30.90625 -14.15625 C 30.90625 -11.207031 30.257812 -8.632812 28.96875 -6.4375 C 27.6875 -4.25 25.90625 -2.570312 23.625 -1.40625 C 21.351562 -0.238281 18.796875 0.34375 15.953125 0.34375 Z M 15.953125 -9.28125 C 16.992188 -9.28125 17.863281 -9.6875 18.5625 -10.5 C 19.269531 -11.320312 19.625 -12.539062 19.625 -14.15625 C 19.625 -15.757812 19.269531 -16.96875 18.5625 -17.78125 C 17.863281 -18.601562 16.992188 -19.015625 15.953125 -19.015625 C 14.921875 -19.015625 14.050781 -18.601562 13.34375 -17.78125 C 12.644531 -16.96875 12.296875 -15.757812 12.296875 -14.15625 C 12.296875 -12.539062 12.632812 -11.320312 13.3125 -10.5 C 14 -9.6875 14.878906 -9.28125 15.953125 -9.28125 Z M 15.953125 -9.28125 "/></g></g></g></svg>